<?xml version="1.0" encoding="utf-8"?>
<!-- Generator: Adobe Illustrator 16.0.0, SVG Export Plug-In . SVG Version: 6.00 Build 0)  -->
<!DOCTYPE svg PUBLIC "-//W3C//DTD SVG 1.1//EN" "http://www.w3.org/Graphics/SVG/1.1/DTD/svg11.dtd">
<svg version="1.1" id="图层_1" xmlns="http://www.w3.org/2000/svg" xmlns:xlink="http://www.w3.org/1999/xlink" x="0px" y="0px"
	 width="100px" height="100px" viewBox="0 0 100 100" enable-background="new 0 0 100 100" xml:space="preserve">
<g>
	<path fill-rule="evenodd" clip-rule="evenodd" fill="#999999" d="M424.672-108.903c-20.539-48.57-49.945-92.187-87.398-129.64
		c-37.453-37.445-81.07-66.851-129.641-87.399c-49.756-21.039-102.568-31.821-156.992-32.05c-0.588,0-1.177-0.008-1.776-0.008
		c-0.598,0-1.187,0.008-1.775,0.008c-54.424,0.229-107.235,11.011-156.992,32.05c-48.57,20.548-92.188,49.954-129.641,87.399
		c-37.453,37.453-66.858,81.07-87.398,129.64C-348.21-58.605-359-5.189-359,49.865c0,55.062,10.79,108.479,32.058,158.768
		c20.54,48.57,49.945,92.188,87.398,129.642c37.453,37.453,81.071,66.858,129.641,87.398c49.757,21.047,102.568,31.82,156.992,32.05
		c0.589,0,1.178,0.008,1.775,0.008c0.599,0,1.188-0.008,1.776-0.008c54.424-0.229,107.236-11.003,156.992-32.05
		c48.57-20.54,92.188-49.945,129.641-87.398s66.859-81.071,87.398-129.642c21.27-50.289,32.059-103.706,32.059-158.768
		C456.73-5.189,445.941-58.605,424.672-108.903L424.672-108.903z M-216.384-215.384c34.448-34.457,74.57-61.505,119.235-80.399
		c15.326-6.475,30.962-11.903,46.876-16.242c-19.86,19.893-38.042,45.975-53.924,77.739c-10.176,20.351-19.132,42.471-26.786,66.007
		c-35.308-9.414-67.661-21.629-95.732-36.356C-223.351-208.278-219.904-211.864-216.384-215.384L-216.384-215.384z M-296.783-96.148
		c12.599-29.783,28.816-57.535,48.447-82.937c31.436,17.249,68.046,31.436,108.127,42.168
		c-13.811,52.279-21.67,110.206-22.873,170.409h-162.812C-323.995-11.378-314.229-54.913-296.783-96.148L-296.783-96.148z
		 M-248.344,278.816c-19.623-25.403-35.84-53.163-48.439-82.938c-17.445-41.234-27.211-84.771-29.111-129.641h162.812
		c1.203,60.195,9.054,118.114,22.873,170.393C-180.282,247.363-216.884,261.56-248.344,278.816L-248.344,278.816z M-97.149,395.514
		c-44.665-18.895-84.787-45.942-119.235-80.391c-3.52-3.521-6.967-7.105-10.331-10.749c28.079-14.752,60.416-26.975,95.724-36.373
		c7.662,23.536,16.618,45.656,26.794,66.017c15.882,31.763,34.064,57.845,53.924,77.738
		C-66.187,407.417-81.823,401.989-97.149,395.514L-97.149,395.514z M32.492,423.364c-16.799-3.324-33.302-11.78-49.25-25.271
		c-21.604-18.272-41.169-44.764-58.148-78.722c-9.103-18.198-17.167-37.944-24.125-58.95c41.202-8.611,85.63-13.613,131.523-14.571
		V423.364L32.492,423.364z M32.492,213.104c-49.069,0.99-96.69,6.442-140.889,15.882c-13.204-49.708-20.744-105.041-21.939-162.747
		H32.492V213.104L32.492,213.104z M32.492,33.492h-162.828c1.195-57.722,8.743-113.063,21.947-162.771
		c44.24,9.464,91.877,14.924,140.881,15.923V33.492L32.492,33.492z M32.492-146.11c-45.836-0.966-90.28-5.968-131.515-14.597
		c6.958-20.998,15.022-40.735,24.117-58.934c16.979-33.957,36.544-60.44,58.148-78.721c15.948-13.483,32.451-21.948,49.25-25.271
		V-146.11L32.492-146.11z M194.879-295.783c44.666,18.894,84.787,45.942,119.234,80.399c3.514,3.512,6.951,7.09,10.316,10.724
		c-27.736,14.499-60.35,26.893-95.75,36.34c-7.646-23.52-16.602-45.623-26.768-65.966c-15.891-31.772-34.072-57.854-53.934-77.747
		C163.9-307.686,179.545-302.267,194.879-295.783L194.879-295.783z M65.238-323.633c16.789,3.332,33.285,11.788,49.225,25.271
		c21.611,18.281,41.178,44.764,58.158,78.721c9.086,18.182,17.148,37.912,24.107,58.893c-41.514,8.686-86.227,13.664-131.49,14.63
		V-323.633L65.238-323.633z M65.238-113.356c48.996-0.966,96.207-6.287,140.881-15.874c13.203,49.7,20.752,105.032,21.947,162.722
		H65.238V-113.356L65.238-113.356L65.238-113.356z M65.238,66.238h162.828c-1.203,57.715-8.744,113.063-21.965,162.78
		c-44.23-9.464-91.867-14.925-140.863-15.924V66.238L65.238,66.238L65.238,66.238z M114.463,398.093
		c-15.939,13.482-32.436,21.947-49.225,25.271V245.85c45.828,0.966,90.271,5.968,131.498,14.596
		c-6.959,20.99-15.021,40.728-24.115,58.926C155.641,353.329,136.074,379.82,114.463,398.093L114.463,398.093z M314.113,315.123
		c-34.447,34.448-74.568,61.496-119.234,80.391c-15.334,6.483-30.979,11.903-46.9,16.25c19.861-19.893,38.043-45.975,53.934-77.746
		c10.174-20.344,19.121-42.463,26.785-65.991c35.316,9.397,67.678,21.62,95.748,36.348
		C321.082,308.018,317.635,311.603,314.113,315.123L314.113,315.123z M394.514,195.879c-12.6,29.782-28.816,57.534-48.447,82.945
		c-31.443-17.249-68.055-31.436-108.143-42.168c13.826-52.287,21.686-110.215,22.889-170.418h162.813
		C421.725,111.108,411.959,154.645,394.514,195.879L394.514,195.879z M260.813,33.492c-1.203-60.186-9.063-118.106-22.881-170.384
		c40.678-10.905,76.943-25.059,108.135-42.193c19.631,25.402,35.848,53.154,48.447,82.937c17.445,41.235,27.211,84.77,29.111,129.64
		H260.813L260.813,33.492z"/>
</g>
</svg>
